<?xml version="1.0" encoding="UTF-8"?>
<svg xmlns="http://www.w3.org/2000/svg" version="1.1" viewBox="0 0 1080 460.2">
  <defs>
    <style>
      .cls-1 {
        isolation: isolate;
      }

      .cls-2 {
        fill: #1e3867;
      }
    </style>
  </defs>
  <!-- Generator: Adobe Illustrator 28.7.1, SVG Export Plug-In . SVG Version: 1.2.0 Build 142)  -->
  <g>
    <g id="Capa_1">
      <g>
        <g class="cls-1">
          <path class="cls-2" d="M65.4,63.4h127.1c25.2,0,43.9,1,56.3,3.1,12.4,2.1,23.4,6.5,33.2,13.1,9.8,6.7,17.9,15.5,24.4,26.6,6.5,11.1,9.8,23.5,9.8,37.2s-4,28.6-12,41c-8,12.4-18.9,21.8-32.6,28,19.4,5.6,34.3,15.3,44.7,28.9,10.4,13.6,15.6,29.6,15.6,47.9s-3.4,28.5-10.1,42.2-15.9,24.6-27.5,32.8c-11.6,8.2-26,13.2-43.1,15.1-10.7,1.2-36.5,1.9-77.4,2.2h-108.2V63.4ZM129.6,116.3v73.5h42.1c25,0,40.6-.4,46.6-1.1,11-1.3,19.6-5.1,25.9-11.4,6.3-6.3,9.4-14.6,9.4-24.8s-2.7-17.8-8.1-24c-5.4-6.1-13.5-9.9-24.2-11.2-6.4-.7-24.7-1.1-54.9-1.1h-36.9ZM129.6,242.8v85h59.4c23.1,0,37.8-.7,44-2,9.5-1.7,17.3-6,23.3-12.7,6-6.7,9-15.7,9-27s-2.3-17.6-6.9-24.3c-4.6-6.6-11.3-11.5-20.1-14.5-8.8-3-27.7-4.6-56.9-4.6h-51.8Z"/>
          <path class="cls-2" d="M672.8,381.4h-69.8l-27.8-72.2h-127.1l-26.2,72.2h-68.1L477.6,63.4h67.9l127.3,318ZM554.6,255.6l-43.8-118-43,118h86.8Z"/>
          <path class="cls-2" d="M706,381.4V63.4h96.1l57.7,216.9,57.1-216.9h96.3v318h-59.7v-250.3l-63.1,250.3h-61.8l-62.9-250.3v250.3h-59.7Z"/>
        </g>
        <polygon class="cls-2" points="1016.4 430.4 398.1 430.4 409.6 409.3 1016.4 409.3 1016.4 430.4"/>
      </g>
    </g>
  </g>
</svg>